# xmcd CD database file
#
# Track frame offsets:
#	150
#	15568
#	38248
#	52228
#	63510
#	79403
#	94123
#	110380
#	122255
#	135153
#	147620
#	163325
#
# Disc length: 2363 seconds
#
# Revision: 2
# Processed by: cddbd v1.5.2PL0 Copyright (c) Steve Scherf et al.
# Submitted via: CDex 1.51
#
DISCID=a509390c
DTITLE=Jerry Portnoy and The Streamliners - Poison Kisses
DYEAR=1991
DGENRE=Blues
TTITLE0=Charge It
TTITLE1=She Makes Me
TTITLE2=Shoulda Woulda Coulda
TTITLE3=Misty
TTITLE4=I Realize
TTITLE5=Real Gone Guy
TTITLE6=Poison Kisses
TTITLE7=Can't Remember to Forget
TTITLE8=You're So Smart
TTITLE9=Runnin' with the Blues
TTITLE10=Lookin' for My Baby
TTITLE11=Blues in a Dream
EXTD=YEAR: 1991
EXTT0=
EXTT1=
EXTT2=
EXTT3=
EXTT4=
EXTT5=
EXTT6=
EXTT7=
EXTT8=
EXTT9=
EXTT10=
EXTT11=
PLAYORDER=
